# xmcd CD database file
#
# Track frame offsets:
#	150
#	20265
#	35137
#	57870
#	85762
#	108715
#	136495
#	160787
#	192000
#	206077
#
# Disc length: 3007 seconds
#
# Revision: 0
# Processed by: cddbd v1.4PL0 Copyright (c) Steve Scherf et al.
# Submitted via: NeoAudio 9.9.9
#
DISCID=850bbd0a
DTITLE=Ensemble Noisten - Kolomeika
DYEAR=1900
DGENRE=Jazz
TTITLE0=Klezmer Freilach
TTITLE1=Hershel
TTITLE2=Tanguena
TTITLE3=My Pace
TTITLE4=Amud Ha'esh
TTITLE5=Jaffa
TTITLE6=Spirit
TTITLE7=Summertime
TTITLE8=Kolomeika
TTITLE9=Yiddish Mama
EXTD=
EXTT0=
EXTT1=
EXTT2=
EXTT3=
EXTT4=
EXTT5=
EXTT6=
EXTT7=
EXTT8=
EXTT9=
PLAYORDER=
